<svg xmlns="http://www.w3.org/2000/svg" viewBox="0 0 42 42.16"><defs><style>.cls-1{fill:#e6f0fa;}.cls-2{fill:#000064;opacity:0.15;}.cls-3{fill:none;stroke:#2e4369;stroke-linecap:round;stroke-linejoin:round;stroke-width:2px;}</style></defs><g id="Layer_2" data-name="Layer 2"><g id="Layer_1-2" data-name="Layer 1"><path class="cls-1" d="M22.89,1a16.66,16.66,0,0,1,2,8A16.78,16.78,0,0,1,8.12,25.73,16.63,16.63,0,0,1,1,24.12,20.12,20.12,0,1,0,22.89,1Z"/><path class="cls-2" d="M20.87,34.16a20.06,20.06,0,0,1-16.7-8.92A16.57,16.57,0,0,1,1,24.12,20.12,20.12,0,0,0,41,21a20.5,20.5,0,0,0-.32-3.53A20.12,20.12,0,0,1,20.87,34.16Z"/><path class="cls-3" d="M22.89,1a16.66,16.66,0,0,1,2,8A16.78,16.78,0,0,1,8.12,25.73,16.63,16.63,0,0,1,1,24.12,20.12,20.12,0,1,0,22.89,1Z"/></g></g></svg>