<svg xmlns="http://www.w3.org/2000/svg" viewBox="0 0 62 46"><defs><style>.cls-1{fill:#e6f0fa;}.cls-2{fill:#000064;opacity:0.15;}.cls-3{fill:none;stroke:#2e4369;stroke-linecap:round;stroke-linejoin:round;stroke-width:2px;}</style></defs><g id="Layer_2" data-name="Layer 2"><g id="Layer_1-2" data-name="Layer 1"><path class="cls-1" d="M57,25H49a2,2,0,0,1,0-4h0a4,4,0,0,0,0-8H23a2,2,0,0,1,0-4h0a4,4,0,0,0,0-8H7A4,4,0,0,0,7,9h6a2,2,0,0,1,0,4H9a4,4,0,0,0,0,8H34a2,2,0,0,1,0,4H5a4,4,0,0,0,0,8H57a4,4,0,0,0,0-8Z"/><path class="cls-1" d="M35,9h6a4,4,0,0,0,0-8H35a4,4,0,0,0,0,8Z"/><path class="cls-1" d="M53,9h1a4,4,0,0,0,0-8H53a4,4,0,0,0,0,8Z"/><path class="cls-1" d="M49,37H33a4,4,0,0,0,0,8H49a4,4,0,0,0,0-8Z"/><path class="cls-1" d="M21,37H18a4,4,0,1,0,0,8h3a4,4,0,0,0,0-8Z"/><path class="cls-2" d="M49,21a4,4,0,0,0,4-4,3.94,3.94,0,0,0-.3-1.5A4,4,0,0,1,49,18h0a2,2,0,0,0-1.31,3.5A2,2,0,0,1,49,21Z"/><path class="cls-2" d="M53,9h1a4,4,0,0,0,4-4,3.93,3.93,0,0,0-.29-1.5A4,4,0,0,1,54,6H53a4,4,0,0,1-3.7-2.5A3.94,3.94,0,0,0,49,5,4,4,0,0,0,53,9Z"/><path class="cls-2" d="M34,18H9a4,4,0,0,1-3.7-2.5A3.94,3.94,0,0,0,5,17a4,4,0,0,0,4,4H34a2,2,0,0,1,1.31.5A2,2,0,0,0,34,18Z"/><path class="cls-2" d="M35,9h6a4,4,0,0,0,4-4,3.94,3.94,0,0,0-.3-1.5A4,4,0,0,1,41,6H35a4,4,0,0,1-3.7-2.5A3.94,3.94,0,0,0,31,5,4,4,0,0,0,35,9Z"/><path class="cls-2" d="M23,6h0a2,2,0,0,0-1.29,3.5A2,2,0,0,1,23,9h0a4,4,0,0,0,4-4,4.13,4.13,0,0,0-.29-1.5A4,4,0,0,1,23,6Z"/><path class="cls-2" d="M49,42H33a4,4,0,0,1-3.7-2.5A3.94,3.94,0,0,0,29,41a4,4,0,0,0,4,4H49a4,4,0,0,0,4-4,3.94,3.94,0,0,0-.3-1.5A4,4,0,0,1,49,42Z"/><path class="cls-2" d="M57,30H5a4,4,0,0,1-3.7-2.5A3.94,3.94,0,0,0,1,29a4,4,0,0,0,4,4H57a4,4,0,0,0,4-4,3.94,3.94,0,0,0-.3-1.5A4,4,0,0,1,57,30Z"/><path class="cls-2" d="M21,42H18a4,4,0,0,1-3.7-2.5A3.94,3.94,0,0,0,14,41a4,4,0,0,0,4,4h3a4,4,0,0,0,4-4,3.94,3.94,0,0,0-.3-1.5A4,4,0,0,1,21,42Z"/><path class="cls-2" d="M7,9h6a2,2,0,0,1,1.29.5A2,2,0,0,0,13,6H7A4,4,0,0,1,3.3,3.5,3.94,3.94,0,0,0,3,5,4,4,0,0,0,7,9Z"/><path class="cls-3" d="M57,25H49a2,2,0,0,1,0-4h0a4,4,0,0,0,0-8H23a2,2,0,0,1,0-4h0a4,4,0,0,0,0-8H7A4,4,0,0,0,7,9h6a2,2,0,0,1,0,4H9a4,4,0,0,0,0,8H34a2,2,0,0,1,0,4H5a4,4,0,0,0,0,8H57a4,4,0,0,0,0-8Z"/><path class="cls-3" d="M35,9h6a4,4,0,0,0,0-8H35a4,4,0,0,0,0,8Z"/><path class="cls-3" d="M53,9h1a4,4,0,0,0,0-8H53a4,4,0,0,0,0,8Z"/><path class="cls-3" d="M49,37H33a4,4,0,0,0,0,8H49a4,4,0,0,0,0-8Z"/><path class="cls-3" d="M21,37H18a4,4,0,1,0,0,8h3a4,4,0,0,0,0-8Z"/></g></g></svg>