<svg xmlns="http://www.w3.org/2000/svg" viewBox="0 0 52 61"><defs><style>.cls-1{fill:#cdf0f0;}.cls-2{fill:#fc0;}.cls-3{fill:#000064;opacity:0.1;}.cls-4{fill:#fff;opacity:0.5;}.cls-5{fill:none;stroke:#2e4369;stroke-linecap:round;stroke-linejoin:round;stroke-width:2px;}</style></defs><g id="Layer_2" data-name="Layer 2"><g id="Layer_1-2" data-name="Layer 1"><path class="cls-1" d="M40.84,37A10,10,0,0,0,51,27.12a10.06,10.06,0,0,0-10.22-9.89c-.33,0-.66,0-1,.05A13.65,13.65,0,0,0,27.15,9,13.48,13.48,0,0,0,13.63,20.54h-.11A8.38,8.38,0,0,0,5,28.77,8.38,8.38,0,0,0,13.52,37Z"/><path class="cls-2" d="M13.63,20.54A13.2,13.2,0,0,1,21,10.43h0A10,10,0,1,0,10.69,21h0a8.73,8.73,0,0,1,2.82-.47Z"/><path class="cls-3" d="M10.7,21a8.73,8.73,0,0,1,2.82-.47h.11A13.2,13.2,0,0,1,21,10.43h0a8.57,8.57,0,0,0-.18-1.36A13.42,13.42,0,0,0,8.63,20.54H8.52l-.46,0a9.92,9.92,0,0,0,2.63.45Z"/><path class="cls-3" d="M13,23a14.24,14.24,0,0,1,.23-2.46A8.23,8.23,0,1,0,13.52,37H27A14,14,0,0,1,13,23Z"/><path class="cls-4" d="M51,27.58c0-.17,0-.34,0-.52a10.06,10.06,0,0,0-10.22-9.83c-.33,0-.66,0-1,.05,0-.06,0-.12-.08-.19h0A14,14,0,0,0,27.1,9a13.82,13.82,0,0,0-9.21,3.53,16.79,16.79,0,0,1,17.59,6.15,10.75,10.75,0,0,0-1.82,1.54A13,13,0,0,1,49,33l.07-.09a10,10,0,0,0,1.89-5C51,27.77,51,27.68,51,27.58Z"/><line class="cls-5" x1="11" y1="44" x2="8" y2="47"/><line class="cls-5" x1="9" y1="58" x2="7" y2="60"/><line class="cls-5" x1="29" y1="58" x2="27" y2="60"/><line class="cls-5" x1="21" y1="44" x2="12" y2="55"/><line class="cls-5" x1="31" y1="44" x2="28" y2="47"/><line class="cls-5" x1="41" y1="44" x2="32" y2="55"/><line class="cls-5" x1="4.6" y1="52" x2="4.6" y2="52"/><line class="cls-5" x1="24.6" y1="52" x2="24.6" y2="52"/><path class="cls-5" d="M40.84,37A10,10,0,0,0,51,27.12a10.06,10.06,0,0,0-10.22-9.89c-.33,0-.66,0-1,.05A13.65,13.65,0,0,0,27.15,9,13.48,13.48,0,0,0,13.63,20.54h-.11A8.38,8.38,0,0,0,5,28.77,8.38,8.38,0,0,0,13.52,37Z"/><path class="cls-5" d="M10.69,21A10,10,0,1,1,21,10.43"/></g></g></svg>