<svg xmlns="http://www.w3.org/2000/svg" viewBox="0 0 62 62"><defs><style>.cls-1{fill:#cdf0f0;}.cls-2{fill:#000064;opacity:0.1;}.cls-3{fill:#fff;opacity:0.5;}.cls-4{fill:#ff6;}.cls-5{fill:none;stroke:#2e4369;stroke-linecap:round;stroke-linejoin:round;stroke-width:2px;}</style></defs><g id="Layer_2" data-name="Layer 2"><g id="Layer_1-2" data-name="Layer 1"><path class="cls-1" d="M48,11c-.17,0-.33,0-.5,0a17,17,0,0,0-32.29,4.45A11,11,0,1,0,12,37H48a13,13,0,0,0,0-26Z"/><path class="cls-2" d="M15,19a18.09,18.09,0,0,1,.34-3.48l-.16,0A10.78,10.78,0,0,0,12,15a11,11,0,0,0,0,22H33A18,18,0,0,1,15,19Z"/><path class="cls-3" d="M61,24A13,13,0,0,0,48,11c-.17,0-.33,0-.5,0A17,17,0,0,0,35.17,1.3c-.39-.07-.78-.14-1.18-.18l-.25,0A16.61,16.61,0,0,0,32,1a17.38,17.38,0,0,0-3.17.29,16.78,16.78,0,0,0-8.26,4.15A22.87,22.87,0,0,1,42,12.5a13.07,13.07,0,0,0-4.16,3.44A15,15,0,0,1,58,30a14.34,14.34,0,0,1-.24,2.56A12.93,12.93,0,0,0,61,24Z"/><polygon class="cls-4" points="35.74 24 21 40 28.47 40 25.21 54 41 37 33.63 37 35.74 24"/><path class="cls-5" d="M41,37h7a13,13,0,1,0,0-26l-.5,0a17,17,0,0,0-32.29,4.45A11,11,0,1,0,12,37H23.77"/><line class="cls-5" x1="4.99" y1="57.49" x2="2.19" y2="61"/><line class="cls-5" x1="14.99" y1="45" x2="9.1" y2="52.37"/><line class="cls-5" x1="40.97" y1="52.54" x2="34.2" y2="61"/><line class="cls-5" x1="47" y1="45" x2="45.4" y2="47"/><polygon class="cls-5" points="35.73 24.01 21 40.01 28.46 40.01 25.21 54.01 41 37.01 33.63 37.01 35.73 24.01"/></g></g></svg>